<svg xmlns="http://www.w3.org/2000/svg" id="bank-check" viewBox="0 0 32 32">
  <path d="m28,27H6c-1.105,0-2-.895-2-2v-14c0-1.105.895-2,2-2h22c1.105,0,2,.895,2,2v14c0,1.105-.895,2-2,2Z" style="fill:#97d8e8"></path>
  <path d="m26,21c0,.552-.448,1-1,1h-9c-.552,0-1-.448-1-1s.448-1,1-1h9c.552,0,1,.448,1,1Zm-17.47-7h2.44c.552,0,1-.448,1-1s-.448-1-1-1h-.94v-1c0-.552-.448-1-1-1s-1,.448-1,1v1.051c-1.14.232-2,1.242-2,2.449,0,1.378,1.122,2.5,2.5,2.5h.94c.276,0,.5.224.5.544,0,.276-.224.5-.5.5h-2.44c-.552,0-1,.448-1,1s.448,1,1,1h1v.956c0,.552.448,1,1,1s1-.448,1-1v-1.025c1.109-.256,1.94-1.252,1.94-2.475,0-1.378-1.122-2.5-2.5-2.5h-.94c-.276,0-.5-.224-.5-.5s.224-.5.5-.5Zm21.47-5v14c0,1.654-1.346,3-3,3H5c-1.654,0-3-1.346-3-3v-14c0-1.654,1.346-3,3-3h22c1.654,0,3,1.346,3,3Zm-2,0c0-.551-.449-1-1-1H5c-.551,0-1,.449-1,1v14c0,.551.449,1,1,1h22c.551,0,1-.449,1-1v-14Zm-3,7h-6c-.552,0-1,.448-1,1s.448,1,1,1h6c.552,0,1-.448,1-1s-.448-1-1-1Zm-8.999-2c.19,0,.383-.054.554-.168l1.747-1.165c.331-.22.775-.176,1.056.104.864.865,2.18,1.077,3.273.531l2.816-1.408c.494-.247.694-.848.447-1.342-.247-.494-.847-.694-1.342-.447l-2.816,1.408c-.323.162-.71.098-.965-.156-.952-.953-2.457-1.101-3.579-.354l-1.748,1.165c-.459.306-.583.927-.277,1.387.193.289.51.445.833.445Z" style="fill:#1190a7"></path>
</svg>
